<svg version="1.1" viewBox="0.0 0.0 368.12598425196853 491.4776902887139" fill="none" stroke="none" stroke-linecap="square" stroke-miterlimit="10" xmlns:xlink="http://www.w3.org/1999/xlink" xmlns="http://www.w3.org/2000/svg"><clipPath id="p.0"><path d="m0 0l368.12598 0l0 491.4777l-368.12598 0l0 -491.4777z" clip-rule="nonzero"/></clipPath><g clip-path="url(#p.0)"><path fill="#000000" fill-opacity="0.0" d="m0 0l368.12598 0l0 491.4777l-368.12598 0z" fill-rule="evenodd"/><path fill="#000000" fill-opacity="0.0" d="m4.3464565 236.07086l0 0c0 -95.2104 80.10225 -172.39369 178.91339 -172.39369l0 0c47.450775 0 92.958115 18.162853 126.51088 50.492947c33.552765 32.330086 52.402496 76.1791 52.402496 121.90075l0 0c0 95.21042 -80.102234 172.3937 -178.91338 172.3937l0 0c-98.811134 0 -178.91339 -77.18329 -178.91339 -172.3937z" fill-rule="evenodd"/><path stroke="#000000" stroke-width="3.0" stroke-linejoin="round" stroke-linecap="butt" d="m4.3464565 236.07086l0 0c0 -95.2104 80.10225 -172.39369 178.91339 -172.39369l0 0c47.450775 0 92.958115 18.162853 126.51088 50.492947c33.552765 32.330086 52.402496 76.1791 52.402496 121.90075l0 0c0 95.21042 -80.102234 172.3937 -178.91338 172.3937l0 0c-98.811134 0 -178.91339 -77.18329 -178.91339 -172.3937z" fill-rule="evenodd"/><path fill="#000000" fill-opacity="0.0" d="m183.25984 408.46457l0 41.543304" fill-rule="evenodd"/><path stroke="#000000" stroke-width="3.0" stroke-linejoin="round" stroke-linecap="butt" d="m183.25984 408.46457l0 41.543304" fill-rule="evenodd"/><path fill="#000000" fill-opacity="0.0" d="m249.90027 438.88977l-15.937012 -37.66931" fill-rule="evenodd"/><path stroke="#000000" stroke-width="3.0" stroke-linejoin="round" stroke-linecap="butt" d="m249.90027 438.88977l-15.937012 -37.66931" fill-rule="evenodd"/><path fill="#000000" fill-opacity="0.0" d="m121.69029 435.99213l11.590546 -31.874023" fill-rule="evenodd"/><path stroke="#000000" stroke-width="3.0" stroke-linejoin="round" stroke-linecap="butt" d="m121.69029 435.99213l11.590546 -31.874023" fill-rule="evenodd"/><path fill="#000000" fill-opacity="0.0" d="m301.3281 415.70865l-20.157501 -33.102356" fill-rule="evenodd"/><path stroke="#000000" stroke-width="3.0" stroke-linejoin="round" stroke-linecap="butt" d="m301.3281 415.70865l-20.157501 -33.102356" fill-rule="evenodd"/><path fill="#000000" fill-opacity="0.0" d="m68.08662 417.15747l21.732285 -31.811005" fill-rule="evenodd"/><path stroke="#000000" stroke-width="3.0" stroke-linejoin="round" stroke-linecap="butt" d="m68.08662 417.15747l21.732285 -31.811005" fill-rule="evenodd"/><path fill="#000000" fill-opacity="0.0" d="m207.16273 31.805775l-4.346466 34.047245" fill-rule="evenodd"/><path stroke="#000000" stroke-width="3.0" stroke-linejoin="round" stroke-linecap="butt" d="m207.16273 31.805775l-4.346466 34.047245" fill-rule="evenodd"/><path fill="#000000" fill-opacity="0.0" d="m161.35695 30.918634l1.9212646 33.826775" fill-rule="evenodd"/><path stroke="#000000" stroke-width="3.0" stroke-linejoin="round" stroke-linecap="butt" d="m161.35695 30.918634l1.9212646 33.826775" fill-rule="evenodd"/><path fill="#000000" fill-opacity="0.0" d="m167.32152 449.99738l31.874023 0l0 42.015747l-31.874023 0z" fill-rule="evenodd"/><path fill="#000000" d="m181.44652 463.5111q1.9375 0 3.03125 1.375q1.296875 1.640625 1.296875 5.4375q0 3.796875 -1.3125 5.453125q-1.078125 1.375 -3.015625 1.375q-1.953125 0 -3.15625 -1.5q-1.1875 -1.5 -1.1875 -5.34375q0 -3.78125 1.3125 -5.4375q1.078125 -1.359375 3.03125 -1.359375zm0 2.125q-0.46875 0 -0.84375 0.296875q-0.359375 0.296875 -0.5625 1.0625q-0.25 0.984375 -0.25 3.328125q0 2.359375 0.234375 3.234375q0.234375 0.875 0.59375 1.171875q0.359375 0.296875 0.828125 0.296875q0.453125 0 0.8125 -0.296875q0.375 -0.296875 0.578125 -1.0625q0.265625 -0.984375 0.265625 -3.34375q0 -2.34375 -0.25 -3.21875q-0.234375 -0.875 -0.59375 -1.171875q-0.359375 -0.296875 -0.8125 -0.296875z" fill-rule="nonzero"/><path fill="#000000" fill-opacity="0.0" d="m239.75853 438.88977l31.874008 0l0 42.015747l-31.874008 0z" fill-rule="evenodd"/><path fill="#000000" d="m256.1023 465.80975l-2.5625153 0l0 -9.640625q-1.40625 1.3125 -3.3125 1.9375l0 -2.328125q1.015625 -0.328125 2.1875 -1.234375q1.171875 -0.921875 1.609375 -2.140625l2.0781403 0l0 13.40625z" fill-rule="nonzero"/><path fill="#000000" fill-opacity="0.0" d="m299.87927 418.6063l31.874023 0l0 42.015747l-31.874023 0z" fill-rule="evenodd"/><path fill="#000000" d="m318.31677 443.1513l0 2.375l-8.96875 0q0.140625 -1.34375 0.859375 -2.546875q0.734375 -1.21875 2.890625 -3.203125q1.734375 -1.625 2.125 -2.1875q0.53125 -0.796875 0.53125 -1.578125q0 -0.84375 -0.46875 -1.296875q-0.453125 -0.46875 -1.265625 -0.46875q-0.796875 0 -1.28125 0.484375q-0.46875 0.46875 -0.546875 1.59375l-2.546875 -0.25q0.234375 -2.109375 1.421875 -3.03125q1.203125 -0.921875 3.015625 -0.921875q1.96875 0 3.09375 1.0625q1.140625 1.0625 1.140625 2.65625q0 0.890625 -0.328125 1.71875q-0.3125 0.8125 -1.015625 1.703125q-0.46875 0.59375 -1.6875 1.703125q-1.203125 1.109375 -1.53125 1.484375q-0.3125 0.359375 -0.515625 0.703125l5.078125 0z" fill-rule="nonzero"/><path fill="#000000" fill-opacity="0.0" d="m91.267715 438.88977l42.015747 0l0 42.015747l-42.015747 0z" fill-rule="evenodd"/><path fill="#000000" d="m101.31459 462.24725l0 -2.5625l5.03125 0l0 2.5625l-5.03125 0zm12.509552 3.5625l-2.5625 0l0 -9.640625q-1.40625 1.3125 -3.3125 1.9375l0 -2.328125q1.015625 -0.328125 2.1875 -1.234375q1.171875 -0.921875 1.609375 -2.140625l2.078125 0l0 13.40625z" fill-rule="nonzero"/><path fill="#000000" fill-opacity="0.0" d="m29.695538 415.70865l42.01575 0l0 42.015747l-42.01575 0z" fill-rule="evenodd"/><path fill="#000000" d="m39.742413 439.06616l0 -2.5625l5.03125 0l0 2.5625l-5.03125 0zm14.603302 1.1875l0 2.375l-8.96875 0q0.140625 -1.34375 0.859375 -2.546875q0.734375 -1.21875 2.890625 -3.203125q1.734375 -1.625 2.125 -2.1875q0.53125 -0.796875 0.53125 -1.578125q0 -0.84375 -0.46875 -1.296875q-0.453125 -0.46875 -1.265625 -0.46875q-0.796875 0 -1.28125 0.484375q-0.46875 0.46875 -0.546875 1.59375l-2.546875 -0.25q0.234375 -2.109375 1.421875 -3.03125q1.203125 -0.921875 3.015625 -0.921875q1.96875 0 3.09375 1.0625q1.140625 1.0625 1.140625 2.65625q0 0.890625 -0.328125 1.71875q-0.3125 0.8125 -1.015625 1.703125q-0.46875 0.59375 -1.6875 1.703125q-1.203125 1.109375 -1.53125 1.484375q-0.3125 0.359375 -0.515625 0.703125l5.078125 0z" fill-rule="nonzero"/><path fill="#000000" fill-opacity="0.0" d="m214.16273 0l102.61418 0l0 42.015747l-102.61418 0z" fill-rule="evenodd"/><path fill="#000000" d="m227.42836 24.998123l0 -3.46875l-3.484375 0l0 -2.390625l3.484375 0l0 -3.484375l2.34375 0l0 3.484375l3.5 0l0 2.390625l-3.5 0l0 3.46875l-2.34375 0zm7.9574585 1.921875l0 -13.359375l4.03125 0l2.421875 9.109375l2.390625 -9.109375l4.046875 0l0 13.359375l-2.5 0l0 -10.515625l-2.65625 10.515625l-2.59375 0l-2.640625 -10.515625l0 10.515625l-2.5 0zm17.462677 -6.71875l-2.328125 -0.421875q0.40625 -1.40625 1.359375 -2.078125q0.953125 -0.671875 2.84375 -0.671875q1.7031097 0 2.5468597 0.40625q0.84375 0.40625 1.171875 1.03125q0.34375 0.625 0.34375 2.28125l-0.015625 3.0q0 1.265625 0.109375 1.875q0.125 0.609375 0.46875 1.296875l-2.53125 0q-0.109375 -0.25 -0.25 -0.75q-0.0625 -0.234375 -0.09375 -0.3125q-0.65623474 0.640625 -1.4062347 0.96875q-0.734375 0.3125 -1.59375 0.3125q-1.484375 0 -2.34375 -0.8125q-0.859375 -0.8125 -0.859375 -2.046875q0 -0.828125 0.390625 -1.46875q0.390625 -0.640625 1.09375 -0.96875q0.703125 -0.34375 2.03125 -0.609375q1.796875 -0.328125 2.4843597 -0.625l0 -0.25q0 -0.75 -0.35935974 -1.0625q-0.359375 -0.3125 -1.375 -0.3125q-0.6875 0 -1.078125 0.28125q-0.375 0.265625 -0.609375 0.9375zm3.4218597 2.078125q-0.48435974 0.15625 -1.5624847 0.390625q-1.0625 0.21875 -1.390625 0.4375q-0.5 0.359375 -0.5 0.90625q0 0.53125 0.40625 0.9375q0.40625 0.390625 1.015625 0.390625q0.703125 0 1.328125 -0.46875q0.46873474 -0.34375 0.60935974 -0.84375q0.09375 -0.328125 0.09375 -1.25l0 -0.5zm-2.7656097 -6.21875l1.25 -2.71875l2.8749847 0l-2.4999847 2.71875l-1.625 0zm6.578842 10.859375l3.484375 -4.984375l-3.34375 -4.6875l3.125 0l1.71875 2.65625l1.796875 -2.65625l3.015625 0l-3.28125 4.578125l3.578125 5.09375l-3.140625 0l-1.96875 -3.0l-1.984375 3.0l-3.0 0zm11.610077 -10.984375l0 -2.375l2.5625 0l0 2.375l-2.5625 0zm0 10.984375l0 -9.671875l2.5625 0l0 9.671875l-2.5625 0zm4.980194 -9.671875l2.359375 0l0 1.3125q1.265625 -1.53125 3.015625 -1.53125q0.9375 0 1.609375 0.390625q0.6875 0.375 1.125 1.140625q0.640625 -0.765625 1.375 -1.140625q0.75 -0.390625 1.578125 -0.390625q1.0625 0 1.796875 0.4375q0.75 0.421875 1.109375 1.265625q0.265625 0.625 0.265625 2.0l0 6.1875l-2.5625 0l0 -5.53125q0 -1.4375 -0.265625 -1.859375q-0.34375 -0.546875 -1.09375 -0.546875q-0.53125 0 -1.015625 0.328125q-0.46875 0.328125 -0.671875 0.96875q-0.203125 0.625 -0.203125 2.0l0 4.640625l-2.5625 0l0 -5.296875q0 -1.421875 -0.140625 -1.828125q-0.140625 -0.40625 -0.421875 -0.609375q-0.28125 -0.203125 -0.78125 -0.203125q-0.59375 0 -1.0625 0.328125q-0.46875 0.3125 -0.6875 0.921875q-0.203125 0.59375 -0.203125 1.984375l0 4.703125l-2.5625 0l0 -9.671875zm16.197754 4.703125q0 -1.28125 0.625 -2.46875q0.625 -1.203125 1.78125 -1.828125q1.15625 -0.625 2.578125 -0.625q2.1875 0 3.59375 1.421875q1.40625 1.421875 1.40625 3.609375q0 2.1875 -1.421875 3.640625q-1.421875 1.4375 -3.5625 1.4375q-1.328125 0 -2.546875 -0.59375q-1.203125 -0.609375 -1.828125 -1.765625q-0.625 -1.171875 -0.625 -2.828125zm2.625 0.125q0 1.453125 0.671875 2.21875q0.6875 0.75 1.6875 0.75q1.0 0 1.671875 -0.75q0.6875 -0.765625 0.6875 -2.234375q0 -1.421875 -0.6875 -2.1875q-0.671875 -0.765625 -1.671875 -0.765625q-1.0 0 -1.6875 0.765625q-0.671875 0.765625 -0.671875 2.203125z" fill-rule="nonzero"/><path fill="#000000" fill-opacity="0.0" d="m9.629921 0l145.92126 0l0 42.015747l-145.92126 0z" fill-rule="evenodd"/><path fill="#000000" d="m67.676796 23.357498l0 -2.5625l5.03125 0l0 2.5625l-5.03125 0zm6.493927 3.5625l0 -13.359375l4.03125 0l2.421875 9.109375l2.390625 -9.109375l4.046875 0l0 13.359375l-2.5 0l0 -10.515625l-2.65625 10.515625l-2.59375 0l-2.640625 -10.515625l0 10.515625l-2.5 0zm15.556427 0l0 -9.671875l2.5625 0l0 9.671875l-2.5625 0zm-0.203125 -10.859375l1.25 -2.71875l2.875 0l-2.5 2.71875l-1.625 0zm14.183304 10.859375l-2.5625 0l0 -4.9375q0 -1.5625 -0.171875 -2.015625q-0.15625 -0.46875 -0.53125 -0.71875q-0.359375 -0.265625 -0.875 -0.265625q-0.671875 0 -1.203125 0.375q-0.53125 0.359375 -0.734375 0.96875q-0.1875 0.59375 -0.1875 2.21875l0 4.375l-2.546875 0l0 -9.671875l2.375 0l0 1.421875q1.265625 -1.640625 3.1875 -1.640625q0.84375 0 1.546875 0.3125q0.703125 0.296875 1.0625 0.78125q0.359375 0.46875 0.5 1.078125q0.140625 0.59375 0.140625 1.703125l0 6.015625zm2.5991058 -10.984375l0 -2.375l2.5625 0l0 2.375l-2.5625 0zm0 10.984375l0 -9.671875l2.5625 0l0 9.671875l-2.5625 0zm4.980179 -9.671875l2.359375 0l0 1.3125q1.265625 -1.53125 3.015625 -1.53125q0.9375 0 1.609375 0.390625q0.6875 0.375 1.125 1.140625q0.640625 -0.765625 1.375 -1.140625q0.75 -0.390625 1.578125 -0.390625q1.0625 0 1.796875 0.4375q0.75 0.421875 1.109375 1.265625q0.265625 0.625 0.265625 2.0l0 6.1875l-2.5625 0l0 -5.53125q0 -1.4375 -0.265625 -1.859375q-0.34375 -0.546875 -1.09375 -0.546875q-0.53125 0 -1.015625 0.328125q-0.46875 0.328125 -0.671875 0.96875q-0.203125 0.625 -0.203125 2.0l0 4.640625l-2.5625 0l0 -5.296875q0 -1.421875 -0.140625 -1.828125q-0.140625 -0.40625 -0.421875 -0.609375q-0.28125 -0.203125 -0.78125 -0.203125q-0.59375 0 -1.0625 0.328125q-0.46875 0.3125 -0.6875 0.921875q-0.203125 0.59375 -0.203125 1.984375l0 4.703125l-2.5625 0l0 -9.671875zm16.19777 4.703125q0 -1.28125 0.6250076 -2.46875q0.625 -1.203125 1.78125 -1.828125q1.15625 -0.625 2.578125 -0.625q2.1875 0 3.59375 1.421875q1.40625 1.421875 1.40625 3.609375q0 2.1875 -1.421875 3.640625q-1.421875 1.4375 -3.5625 1.4375q-1.328125 0 -2.546875 -0.59375q-1.203125 -0.609375 -1.828125 -1.765625q-0.6250076 -1.171875 -0.6250076 -2.828125zm2.6250076 0.125q0 1.453125 0.671875 2.21875q0.6875 0.75 1.6875 0.75q1.0 0 1.671875 -0.75q0.6875 -0.765625 0.6875 -2.234375q0 -1.421875 -0.6875 -2.1875q-0.671875 -0.765625 -1.671875 -0.765625q-1.0 0 -1.6875 0.765625q-0.671875 0.765625 -0.671875 2.203125z" fill-rule="nonzero"/><path fill="#000000" fill-opacity="0.0" d="m328.9134 385.34647l31.874023 0l0 42.015747l-31.874023 0z" fill-rule="evenodd"/><path fill="#000000" d="m352.17902 412.26645l0 -2.5625l2.5625 0l0 2.5625l-2.5625 0zm-6.21875 0l0 -2.5625l2.5625 0l0 2.5625l-2.5625 0zm-6.21875 0l0 -2.5625l2.5625 0l0 2.5625l-2.5625 0z" fill-rule="nonzero"/><path fill="#000000" fill-opacity="0.0" d="m10.606299 380.24408l31.874016 0l0 42.015778l-31.874016 0z" fill-rule="evenodd"/><path fill="#000000" d="m33.871925 407.1641l0 -2.5625l2.5625 0l0 2.5625l-2.5625 0zm-6.218752 0l0 -2.5625l2.5625 0l0 2.5625l-2.5625 0zm-6.21875 0l0 -2.5625l2.5625 0l0 2.5625l-2.5625 0z" fill-rule="nonzero"/></g></svg>