<svg version="1.1" viewBox="0.0 0.0 1298.5721784776904 205.8451443569554" fill="none" stroke="none" stroke-linecap="square" stroke-miterlimit="10" xmlns:xlink="http://www.w3.org/1999/xlink" xmlns="http://www.w3.org/2000/svg"><clipPath id="p.0"><path d="m0 0l1298.5721 0l0 205.84514l-1298.5721 0l0 -205.84514z" clip-rule="nonzero"/></clipPath><g clip-path="url(#p.0)"><path fill="#000000" fill-opacity="0.0" d="m0 0l1298.5721 0l0 205.84514l-1298.5721 0z" fill-rule="evenodd"/><path fill="#000000" fill-opacity="0.0" d="m122.34646 116.76903l1075.874 -2.9606323" fill-rule="evenodd"/><path stroke="#000000" stroke-width="4.0" stroke-linejoin="round" stroke-linecap="butt" d="m146.34636 116.70298l1027.8743 -2.828537" fill-rule="evenodd"/><path fill="#000000" stroke="#000000" stroke-width="4.0" stroke-linecap="butt" d="m146.32819 110.09608l-18.13414 6.6568604l18.170502 6.5569534z" fill-rule="evenodd"/><path fill="#000000" stroke="#000000" stroke-width="4.0" stroke-linecap="butt" d="m1174.2388 120.481346l18.134155 -6.6568527l-18.170532 -6.5569534z" fill-rule="evenodd"/><path fill="#000000" fill-opacity="0.0" d="m652.78345 108.15223l-1.4172974 61.133858" fill-rule="evenodd"/><path stroke="#000000" stroke-width="4.0" stroke-linejoin="round" stroke-linecap="butt" d="m652.78345 108.15223l-1.4172974 61.133858" fill-rule="evenodd"/><path fill="#000000" fill-opacity="0.0" d="m626.04333 169.28609l50.64563 0l0 36.220474l-50.64563 0z" fill-rule="evenodd"/><path fill="#000000" d="m640.9027 183.43796q2.21875 0 3.46875 1.578125q1.484375 1.875 1.484375 6.21875q0 4.328125 -1.5 6.234375q-1.234375 1.5625 -3.453125 1.5625q-2.234375 0 -3.609375 -1.71875q-1.359375 -1.71875 -1.359375 -6.109375q0 -4.3125 1.5 -6.203125q1.25 -1.5625 3.46875 -1.5625zm0 2.421875q-0.53125 0 -0.953125 0.34375q-0.421875 0.34375 -0.640625 1.21875q-0.3125 1.125 -0.3125 3.8125q0 2.6875 0.265625 3.703125q0.28125 1.0 0.6875 1.328125q0.421875 0.328125 0.953125 0.328125q0.53125 0 0.9375 -0.328125q0.421875 -0.34375 0.65625 -1.21875q0.296875 -1.125 0.296875 -3.8125q0 -2.6875 -0.28125 -3.6875q-0.265625 -1.0 -0.671875 -1.34375q-0.40625 -0.34375 -0.9375 -0.34375zm7.5335693 12.90625l0 -2.921875l2.921875 0l0 2.921875l-2.921875 0zm10.253723 -15.328125q2.21875 0 3.46875 1.578125q1.484375 1.875 1.484375 6.21875q0 4.328125 -1.5 6.234375q-1.234375 1.5625 -3.453125 1.5625q-2.234375 0 -3.609375 -1.71875q-1.359375 -1.71875 -1.359375 -6.109375q0 -4.3125 1.5 -6.203125q1.25 -1.5625 3.46875 -1.5625zm0 2.421875q-0.53125 0 -0.953125 0.34375q-0.421875 0.34375 -0.640625 1.21875q-0.3125 1.125 -0.3125 3.8125q0 2.6875 0.265625 3.703125q0.28125 1.0 0.6875 1.328125q0.421875 0.328125 0.953125 0.328125q0.53125 0 0.9375 -0.328125q0.421875 -0.34375 0.65625 -1.21875q0.296875 -1.125 0.296875 -3.8125q0 -2.6875 -0.28125 -3.6875q-0.265625 -1.0 -0.671875 -1.34375q-0.40625 -0.34375 -0.9375 -0.34375z" fill-rule="nonzero"/><path fill="#000000" fill-opacity="0.0" d="m682.4409 58.897636l-0.56689453 64.69292" fill-rule="evenodd"/><path stroke="#000000" stroke-width="4.0" stroke-linejoin="round" stroke-linecap="butt" d="m682.4409 58.897636l-0.56689453 64.69292" fill-rule="evenodd"/><path fill="#000000" fill-opacity="0.0" d="m631.5302 58.897636l-1.5118408 62.48819" fill-rule="evenodd"/><path stroke="#000000" stroke-width="4.0" stroke-linejoin="round" stroke-linecap="butt" d="m631.5302 58.897636l-1.5118408 62.48819" fill-rule="evenodd"/><path fill="#000000" fill-opacity="0.0" d="m682.4409 40.787403l211.18115 0l0 36.22047l-211.18115 0z" fill-rule="evenodd"/><path fill="#000000" d="m692.83154 67.7074l0 -13.359371l2.65625 0l3.15625 9.453125q0.4375 1.3281212 0.640625 1.9843712q0.234375 -0.734375 0.703125 -2.1406212l3.203125 -9.296875l2.375 0l0 13.359371l-1.703125 0l0 -11.171871l-3.875 11.171871l-1.59375 0l-3.859375 -11.374996l0 11.374996l-1.703125 0zm15.8845825 0l0 -13.359371l1.765625 0l0 13.359371l-1.765625 0zm4.8707886 0l0 -13.359371l1.8125 0l7.015625 10.484371l0 -10.484371l1.6875 0l0 13.359371l-1.8125 0l-7.015625 -10.499996l0 10.499996l-1.6875 0zm11.769836 3.703125l0 -1.1875l10.859375 0l0 1.1875l-10.859375 0zm15.906982 -3.703125l-5.171875 -13.359371l1.921875 0l3.46875 9.703121q0.421875 1.171875 0.703125 2.1875q0.3125 -1.09375 0.71875 -2.1875l3.609375 -9.703121l1.796875 0l-5.234375 13.359371l-1.8125 0zm5.7768555 0l5.125 -13.359371l1.90625 0l5.46875 13.359371l-2.015625 0l-1.546875 -4.046871l-5.59375 0l-1.46875 4.046871l-1.875 0zm3.859375 -5.484371l4.53125 0l-1.40625 -3.703125q-0.625 -1.6875 -0.9375 -2.765625q-0.265625 1.28125 -0.71875 2.546875l-1.46875 3.921875zm9.9748535 5.484371l0 -13.359371l1.78125 0l0 11.781246l6.5625 0l0 1.578125l-8.34375 0zm19.219482 -13.359371l1.765625 0l0 7.71875q0 2.0156212 -0.453125 3.2031212q-0.453125 1.1875 -1.640625 1.9375q-1.1875 0.734375 -3.125 0.734375q-1.875 0 -3.078125 -0.640625q-1.1875 -0.65625 -1.703125 -1.875q-0.5 -1.234375 -0.5 -3.3593712l0 -7.71875l1.765625 0l0 7.71875q0 1.734375 0.3125 2.5624962q0.328125 0.8125 1.109375 1.265625q0.796875 0.453125 1.9375 0.453125q1.953125 0 2.78125 -0.890625q0.828125 -0.890625 0.828125 -3.3906212l0 -7.71875zm4.7385254 13.359371l0 -13.359371l9.65625 0l0 1.578125l-7.875 0l0 4.09375l7.375 0l0 1.5625l-7.375 0l0 4.546871l8.1875 0l0 1.578125l-9.96875 0z" fill-rule="nonzero"/><path fill="#000000" fill-opacity="0.0" d="m420.3491 38.25197l211.18112 0l0 41.291336l-211.18112 0z" fill-rule="evenodd"/><path fill="#000000" d="m512.54456 61.15634l0 -1.640625l5.03125 0l0 1.640625l-5.03125 0zm7.0095215 4.015625l0 -13.359375l2.65625 0l3.15625 9.453125q0.4375 1.328125 0.640625 1.984375q0.234375 -0.734375 0.703125 -2.140625l3.203125 -9.296875l2.375 0l0 13.359375l-1.703125 0l0 -11.171875l-3.875 11.171875l-1.59375 0l-3.859375 -11.375l0 11.375l-1.703125 0zm15.8845825 0l0 -13.359375l1.765625 0l0 13.359375l-1.765625 0zm4.8707886 0l0 -13.359375l1.8125 0l7.015625 10.484375l0 -10.484375l1.6875 0l0 13.359375l-1.8125 0l-7.015625 -10.5l0 10.5l-1.6875 0zm11.769836 3.703125l0 -1.1875l10.859375 0l0 1.1875l-10.859375 0zm15.906921 -3.703125l-5.171875 -13.359375l1.921875 0l3.46875 9.703125q0.421875 1.171875 0.703125 2.1875q0.3125 -1.09375 0.71875 -2.1875l3.609375 -9.703125l1.796875 0l-5.234375 13.359375l-1.8125 0zm5.7769165 0l5.125 -13.359375l1.90625 0l5.46875 13.359375l-2.015625 0l-1.546875 -4.046875l-5.59375 0l-1.46875 4.046875l-1.875 0zm3.859375 -5.484375l4.53125 0l-1.40625 -3.703125q-0.625 -1.6875 -0.9375 -2.765625q-0.265625 1.28125 -0.71875 2.546875l-1.46875 3.921875zm9.9748535 5.484375l0 -13.359375l1.78125 0l0 11.78125l6.5625 0l0 1.578125l-8.34375 0zm19.219421 -13.359375l1.765625 0l0 7.71875q0 2.015625 -0.453125 3.203125q-0.453125 1.1875 -1.640625 1.9375q-1.1875 0.734375 -3.125 0.734375q-1.875 0 -3.078125 -0.640625q-1.1875 -0.65625 -1.703125 -1.875q-0.5 -1.234375 -0.5 -3.359375l0 -7.71875l1.765625 0l0 7.71875q0 1.734375 0.3125 2.5625q0.328125 0.8125 1.109375 1.265625q0.796875 0.453125 1.9375 0.453125q1.953125 0 2.78125 -0.890625q0.828125 -0.890625 0.828125 -3.390625l0 -7.71875zm4.7385864 13.359375l0 -13.359375l9.65625 0l0 1.578125l-7.875 0l0 4.09375l7.375 0l0 1.5625l-7.375 0l0 4.546875l8.1875 0l0 1.578125l-9.96875 0z" fill-rule="nonzero"/><path fill="#000000" fill-opacity="0.0" d="m1058.5826 25.212599l-1.574707 92.88189" fill-rule="evenodd"/><path stroke="#000000" stroke-width="4.0" stroke-linejoin="round" stroke-linecap="butt" d="m1058.5826 25.212599l-1.574707 92.88189" fill-rule="evenodd"/><path fill="#000000" fill-opacity="0.0" d="m847.40155 7.102362l211.18109 0l0 36.22047l-211.18109 0z" fill-rule="evenodd"/><path fill="#000000" d="m940.3757 34.02236l0 -13.359377l2.65625 0l3.15625 9.453125q0.4375 1.328125 0.640625 1.9843769q0.234375 -0.7343769 0.703125 -2.140627l3.203125 -9.296875l2.375 0l0 13.359377l-1.703125 0l0 -11.171877l-3.875 11.171877l-1.59375 0l-3.859375 -11.375002l0 11.375002l-1.703125 0zm14.1189575 0l5.125 -13.359377l1.90625 0l5.46875 13.359377l-2.015625 0l-1.546875 -4.046877l-5.59375 0l-1.46875 4.046877l-1.875 0zm3.859375 -5.484377l4.53125 0l-1.40625 -3.703125q-0.625 -1.6875 -0.9375 -2.765625q-0.265625 1.28125 -0.71875 2.546875l-1.46875 3.921875zm8.6935425 5.484377l5.171875 -6.953127l-4.5625 -6.40625l2.109375 0l2.421875 3.4375q0.75 1.0625 1.078125 1.625q0.4375 -0.71875 1.046875 -1.515625l2.6875 -3.546875l1.921875 0l-4.6875 6.296875l5.0625 7.062502l-2.1875 0l-3.359375 -4.765627q-0.28125 -0.40625 -0.59375 -0.890625q-0.4375 0.734375 -0.625 1.0l-3.359375 4.656252l-2.125 0zm12.0842285 3.703125l0 -1.1875l10.859375 0l0 1.1875l-10.859375 0zm15.906921 -3.703125l-5.171875 -13.359377l1.921875 0l3.46875 9.703125q0.421875 1.171875 0.703125 2.187502q0.3125 -1.0937519 0.71875 -2.187502l3.609375 -9.703125l1.796875 0l-5.234375 13.359377l-1.8125 0zm5.7769165 0l5.125 -13.359377l1.90625 0l5.46875 13.359377l-2.015625 0l-1.546875 -4.046877l-5.59375 0l-1.46875 4.046877l-1.875 0zm3.859375 -5.484377l4.53125 0l-1.40625 -3.703125q-0.625 -1.6875 -0.9375 -2.765625q-0.265625 1.28125 -0.71875 2.546875l-1.46875 3.921875zm9.9748535 5.484377l0 -13.359377l1.78125 0l0 11.781252l6.5625 0l0 1.578125l-8.34375 0zm19.219421 -13.359377l1.765625 0l0 7.71875q0 2.015625 -0.453125 3.203125q-0.453125 1.1875019 -1.640625 1.9375019q-1.1875 0.734375 -3.125 0.734375q-1.875 0 -3.078125 -0.640625q-1.1875 -0.65625 -1.703125 -1.8750019q-0.5 -1.234375 -0.5 -3.359375l0 -7.71875l1.765625 0l0 7.71875q0 1.734375 0.3125 2.5625q0.328125 0.8125 1.109375 1.2656269q0.796875 0.453125 1.9375 0.453125q1.953125 0 2.78125 -0.8906269q0.828125 -0.890625 0.828125 -3.390625l0 -7.71875zm4.7386475 13.359377l0 -13.359377l9.65625 0l0 1.578125l-7.875 0l0 4.09375l7.375 0l0 1.5625l-7.375 0l0 4.546877l8.1875 0l0 1.578125l-9.96875 0z" fill-rule="nonzero"/><path fill="#000000" fill-opacity="0.0" d="m242.84776 7.102362l211.1811 0l0 36.22047l-211.1811 0z" fill-rule="evenodd"/><path fill="#000000" d="m245.22884 30.006735l0 -1.640625l5.03125 0l0 1.640625l-5.03125 0z" fill-rule="nonzero"/><path fill="#000000" d="m253.23839 34.02236l0 -13.359377l2.65625 0l3.1562653 9.453125q0.4375 1.328125 0.640625 1.9843769q0.234375 -0.7343769 0.703125 -2.140627l3.203125 -9.296875l2.375 0l0 13.359377l-1.703125 0l0 -11.171877l-3.875 11.171877l-1.59375 0l-3.8593903 -11.375002l0 11.375002l-1.703125 0zm14.118942 0l5.125 -13.359377l1.90625 0l5.46875 13.359377l-2.015625 0l-1.546875 -4.046877l-5.59375 0l-1.46875 4.046877l-1.875 0zm3.859375 -5.484377l4.53125 0l-1.40625 -3.703125q-0.625 -1.6875 -0.9375 -2.765625q-0.265625 1.28125 -0.71875 2.546875l-1.46875 3.921875zm8.693573 5.484377l5.171875 -6.953127l-4.5625 -6.40625l2.109375 0l2.421875 3.4375q0.75 1.0625 1.078125 1.625q0.4375 -0.71875 1.046875 -1.515625l2.6875 -3.546875l1.921875 0l-4.6875 6.296875l5.0625 7.062502l-2.1875 0l-3.359375 -4.765627q-0.28125 -0.40625 -0.59375 -0.890625q-0.4375 0.734375 -0.625 1.0l-3.359375 4.656252l-2.125 0zm12.084198 3.703125l0 -1.1875l10.859375 0l0 1.1875l-10.859375 0zm15.906952 -3.703125l-5.171875 -13.359377l1.921875 0l3.46875 9.703125q0.421875 1.171875 0.703125 2.187502q0.3125 -1.0937519 0.71875 -2.187502l3.609375 -9.703125l1.796875 0l-5.234375 13.359377l-1.8125 0zm5.7769165 0l5.125 -13.359377l1.90625 0l5.46875 13.359377l-2.015625 0l-1.546875 -4.046877l-5.59375 0l-1.46875 4.046877l-1.875 0zm3.859375 -5.484377l4.53125 0l-1.40625 -3.703125q-0.625 -1.6875 -0.9375 -2.765625q-0.265625 1.28125 -0.71875 2.546875l-1.46875 3.921875zm9.974823 5.484377l0 -13.359377l1.78125 0l0 11.781252l6.5625 0l0 1.578125l-8.34375 0zm19.219452 -13.359377l1.765625 0l0 7.71875q0 2.015625 -0.453125 3.203125q-0.453125 1.1875019 -1.640625 1.9375019q-1.1875 0.734375 -3.125 0.734375q-1.875 0 -3.078125 -0.640625q-1.1875 -0.65625 -1.703125 -1.8750019q-0.5 -1.234375 -0.5 -3.359375l0 -7.71875l1.765625 0l0 7.71875q0 1.734375 0.3125 2.5625q0.328125 0.8125 1.109375 1.2656269q0.796875 0.453125 1.9375 0.453125q1.953125 0 2.78125 -0.8906269q0.828125 -0.890625 0.828125 -3.390625l0 -7.71875zm4.7385864 13.359377l0 -13.359377l9.65625 0l0 1.578125l-7.875 0l0 4.09375l7.375 0l0 1.5625l-7.375 0l0 4.546877l8.1875 0l0 1.578125l-9.96875 0z" fill-rule="nonzero"/><path fill="#000000" fill-opacity="0.0" d="m242.84776 25.212599l-0.12597656 101.70078" fill-rule="evenodd"/><path stroke="#000000" stroke-width="4.0" stroke-linejoin="round" stroke-linecap="butt" d="m242.84776 25.212599l-0.12597656 101.70078" fill-rule="evenodd"/><path fill="#000000" fill-opacity="0.0" d="m4.406824 135.98425l295.46457 0l0 36.220474l-295.46457 0z" fill-rule="evenodd"/><path fill="#000000" d="m14.828699 162.90425l0 -13.359375l1.8125 0l7.015625 10.484375l0 -10.484375l1.6875 0l0 13.359375l-1.8125 0l-7.015625 -10.5l0 10.5l-1.6875 0zm13.519821 0l0 -13.359375l9.656252 0l0 1.578125l-7.875002 0l0 4.09375l7.375002 0l0 1.5625l-7.375002 0l0 4.546875l8.187502 0l0 1.578125l-9.968752 0zm18.662325 -5.234375l0 -1.578125l5.65625 0l0 4.953125q-1.296875 1.046875 -2.6875 1.578125q-1.375 0.515625 -2.84375 0.515625q-1.96875 0 -3.578125 -0.84375q-1.609375 -0.84375 -2.421875 -2.4375q-0.8125 -1.59375 -0.8125 -3.5625q0 -1.953125 0.8125 -3.640625q0.8125 -1.6875 2.34375 -2.5q1.53125 -0.828125 3.515625 -0.828125q1.453125 0 2.625 0.46875q1.171875 0.46875 1.828125 1.3125q0.671875 0.828125 1.015625 2.171875l-1.59375 0.4375q-0.296875 -1.015625 -0.75 -1.59375q-0.4375 -0.59375 -1.265625 -0.9375q-0.828125 -0.34375 -1.84375 -0.34375q-1.203125 0 -2.09375 0.375q-0.890625 0.359375 -1.4375 0.96875q-0.53125 0.59375 -0.828125 1.3125q-0.515625 1.234375 -0.515625 2.6875q0 1.78125 0.609375 2.984375q0.625 1.203125 1.796875 1.796875q1.171875 0.578125 2.5 0.578125q1.140625 0 2.234375 -0.4375q1.09375 -0.453125 1.65625 -0.953125l0 -2.484375l-3.921875 0zm6.792679 5.234375l5.125 -13.359375l1.90625 0l5.468746 13.359375l-2.015625 0l-1.5468712 -4.046875l-5.59375 0l-1.46875 4.046875l-1.875 0zm3.859375 -5.484375l4.53125 0l-1.40625 -3.703125q-0.625 -1.6875 -0.9375 -2.765625q-0.265625 1.28125 -0.71875 2.546875l-1.46875 3.921875zm12.073772 5.484375l0 -11.78125l-4.40625 0l0 -1.578125l10.578125 0l0 1.578125l-4.40625 0l0 11.78125l-1.765625 0zm8.286606 0l0 -13.359375l1.765625 0l0 13.359375l-1.765625 0zm8.698929 0l-5.171875 -13.359375l1.921875 0l3.46875 9.703125q0.421875 1.171875 0.703125 2.1875q0.3125 -1.09375 0.71875 -2.1875l3.609375 -9.703125l1.796875 0l-5.234375 13.359375l-1.8125 0zm8.662323 0l0 -13.359375l9.65625 0l0 1.578125l-7.875 0l0 4.09375l7.375 0l0 1.5625l-7.375 0l0 4.546875l8.1875 0l0 1.578125l-9.96875 0zm10.693573 3.703125l0 -1.1875l10.859375 0l0 1.1875l-10.859375 0zm12.391342 -3.703125l0 -13.359375l1.765625 0l0 13.359375l-1.765625 0zm4.870804 0l0 -13.359375l1.8125 0l7.0156326 10.484375l0 -10.484375l1.6875 0l0 13.359375l-1.8125 0l-7.0156326 -10.5l0 10.5l-1.6875 0zm13.582329 0l0 -13.359375l9.015625 0l0 1.578125l-7.25 0l0 4.140625l6.265625 0l0 1.578125l-6.265625 0l0 6.0625l-1.765625 0zm11.599106 0l0 -13.359375l1.765625 0l0 13.359375l-1.765625 0zm4.870804 0l0 -13.359375l1.8125 0l7.015625 10.484375l0 -10.484375l1.6875 0l0 13.359375l-1.8125 0l-7.015625 -10.5l0 10.5l-1.6875 0zm13.785446 0l0 -13.359375l1.765625 0l0 13.359375l-1.765625 0zm8.292679 0l0 -11.78125l-4.40625 0l0 -1.578125l10.578125 0l0 1.578125l-4.40625 0l0 11.78125l-1.765625 0zm11.755356 0l0 -5.65625l-5.15625 -7.703125l2.15625 0l2.640625 4.03125q0.71875 1.125 1.34375 2.265625q0.609375 -1.046875 1.46875 -2.359375l2.578125 -3.9375l2.0625 0l-5.328125 7.703125l0 5.65625l-1.765625 0z" fill-rule="nonzero"/><path fill="#000000" fill-opacity="0.0" d="m1005.8819 135.98425l295.46454 0l0 36.220474l-295.46454 0z" fill-rule="evenodd"/><path fill="#000000" d="m1119.6285 162.90425l0 -13.359375l5.046875 0q1.328125 0 2.03125 0.125q0.96875 0.171875 1.640625 0.640625q0.671875 0.453125 1.078125 1.28125q0.40625 0.828125 0.40625 1.828125q0 1.703125 -1.09375 2.890625q-1.078125 1.171875 -3.921875 1.171875l-3.421875 0l0 5.421875l-1.765625 0zm1.765625 -7.0l3.453125 0q1.71875 0 2.4375 -0.640625q0.71875 -0.640625 0.71875 -1.796875q0 -0.84375 -0.421875 -1.4375q-0.421875 -0.59375 -1.125 -0.78125q-0.4375 -0.125 -1.640625 -0.125l-3.421875 0l0 4.78125zm10.1467285 0.5q0 -3.328125 1.78125 -5.203125q1.78125 -1.890625 4.609375 -1.890625q1.84375 0 3.328125 0.890625q1.484375 0.875 2.265625 2.46875q0.78125 1.578125 0.78125 3.578125q0 2.03125 -0.828125 3.640625q-0.8125 1.59375 -2.3125 2.421875q-1.5 0.828125 -3.25 0.828125q-1.875 0 -3.359375 -0.90625q-1.484375 -0.921875 -2.25 -2.5q-0.765625 -1.578125 -0.765625 -3.328125zm1.8125 0.015625q0 2.421875 1.296875 3.8125q1.296875 1.390625 3.265625 1.390625q2.0 0 3.28125 -1.40625q1.28125 -1.40625 1.28125 -3.984375q0 -1.625 -0.546875 -2.84375q-0.546875 -1.21875 -1.609375 -1.875q-1.0625 -0.671875 -2.375 -0.671875q-1.890625 0 -3.25 1.296875q-1.34375 1.28125 -1.34375 4.28125zm12.636475 2.1875l1.65625 -0.140625q0.125 1.0 0.546875 1.640625q0.4375 0.640625 1.34375 1.046875q0.921875 0.390625 2.0625 0.390625q1.0 0 1.78125 -0.296875q0.78125 -0.296875 1.15625 -0.8125q0.375 -0.53125 0.375 -1.15625q0 -0.625 -0.375 -1.09375q-0.359375 -0.46875 -1.1875 -0.796875q-0.546875 -0.203125 -2.390625 -0.640625q-1.828125 -0.453125 -2.5625 -0.84375q-0.96875 -0.5 -1.4375 -1.234375q-0.46875 -0.75 -0.46875 -1.671875q0 -1.0 0.578125 -1.875q0.578125 -0.890625 1.671875 -1.34375q1.109375 -0.453125 2.453125 -0.453125q1.484375 0 2.609375 0.484375q1.140625 0.46875 1.75 1.40625q0.609375 0.921875 0.65625 2.09375l-1.6875 0.125q-0.140625 -1.265625 -0.9375 -1.90625q-0.78125 -0.65625 -2.3125 -0.65625q-1.609375 0 -2.34375 0.59375q-0.734375 0.59375 -0.734375 1.421875q0 0.71875 0.53125 1.171875q0.5 0.46875 2.65625 0.96875q2.15625 0.484375 2.953125 0.84375q1.171875 0.53125 1.71875 1.359375q0.5625 0.828125 0.5625 1.90625q0 1.0625 -0.609375 2.015625q-0.609375 0.9375 -1.75 1.46875q-1.140625 0.515625 -2.578125 0.515625q-1.8125 0 -3.046875 -0.53125q-1.21875 -0.53125 -1.921875 -1.59375q-0.6875 -1.0625 -0.71875 -2.40625zm13.3342285 4.296875l0 -13.359375l1.765625 0l0 13.359375l-1.765625 0zm8.292603 0l0 -11.78125l-4.40625 0l0 -1.578125l10.578125 0l0 1.578125l-4.40625 0l0 11.78125l-1.765625 0zm8.286621 0l0 -13.359375l1.765625 0l0 13.359375l-1.765625 0zm8.698975 0l-5.171875 -13.359375l1.921875 0l3.46875 9.703125q0.421875 1.171875 0.703125 2.1875q0.3125 -1.09375 0.71875 -2.1875l3.609375 -9.703125l1.796875 0l-5.234375 13.359375l-1.8125 0zm8.662231 0l0 -13.359375l9.65625 0l0 1.578125l-7.875 0l0 4.09375l7.375 0l0 1.5625l-7.375 0l0 4.546875l8.1875 0l0 1.578125l-9.96875 0zm10.6936035 3.703125l0 -1.1875l10.859375 0l0 1.1875l-10.859375 0zm12.391357 -3.703125l0 -13.359375l1.765625 0l0 13.359375l-1.765625 0zm4.8708496 0l0 -13.359375l1.8125 0l7.015625 10.484375l0 -10.484375l1.6875 0l0 13.359375l-1.8125 0l-7.015625 -10.5l0 10.5l-1.6875 0zm13.582275 0l0 -13.359375l9.015625 0l0 1.578125l-7.25 0l0 4.140625l6.265625 0l0 1.578125l-6.265625 0l0 6.0625l-1.765625 0zm11.599121 0l0 -13.359375l1.765625 0l0 13.359375l-1.765625 0zm4.8708496 0l0 -13.359375l1.8125 0l7.015625 10.484375l0 -10.484375l1.6875 0l0 13.359375l-1.8125 0l-7.015625 -10.5l0 10.5l-1.6875 0zm13.7854 0l0 -13.359375l1.765625 0l0 13.359375l-1.765625 0zm8.292603 0l0 -11.78125l-4.40625 0l0 -1.578125l10.578125 0l0 1.578125l-4.40625 0l0 11.78125l-1.765625 0zm11.755371 0l0 -5.65625l-5.15625 -7.703125l2.15625 0l2.640625 4.03125q0.71875 1.125 1.34375 2.265625q0.609375 -1.046875 1.46875 -2.359375l2.578125 -3.9375l2.0625 0l-5.328125 7.703125l0 5.65625l-1.765625 0z" fill-rule="nonzero"/><path fill="#000000" fill-opacity="0.0" d="m661.22833 142.58267l62.519714 0l0 36.220474l-62.519714 0z" fill-rule="evenodd"/><path fill="#000000" d="m675.11896 169.85956l0 -3.96875l-4.0 0l0 -2.734375l4.0 0l0 -3.96875l2.65625 0l0 3.96875l4.015625 0l0 2.734375l-4.015625 0l0 3.96875l-2.65625 0zm13.424072 -13.125q2.21875 0 3.46875 1.578125q1.484375 1.875 1.484375 6.21875q0 4.328125 -1.5 6.234375q-1.234375 1.5625 -3.453125 1.5625q-2.234375 0 -3.609375 -1.71875q-1.359375 -1.71875 -1.359375 -6.109375q0 -4.3125 1.5 -6.203125q1.25 -1.5625 3.46875 -1.5625zm0 2.421875q-0.53125 0 -0.953125 0.34375q-0.421875 0.34375 -0.640625 1.21875q-0.3125 1.125 -0.3125 3.8125q0 2.6875 0.265625 3.703125q0.28125 1.0 0.6875 1.328125q0.421875 0.328125 0.953125 0.328125q0.53125 0 0.9375 -0.328125q0.421875 -0.34375 0.65625 -1.21875q0.296875 -1.125 0.296875 -3.8125q0 -2.6875 -0.28125 -3.6875q-0.265625 -1.0 -0.671875 -1.34375q-0.40625 -0.34375 -0.9375 -0.34375zm7.5335693 12.90625l0 -2.921875l2.921875 0l0 2.921875l-2.921875 0zm10.253784 -15.328125q2.21875 0 3.46875 1.578125q1.484375 1.875 1.484375 6.21875q0 4.328125 -1.5 6.234375q-1.234375 1.5625 -3.453125 1.5625q-2.234375 0 -3.609375 -1.71875q-1.359375 -1.71875 -1.359375 -6.109375q0 -4.3125 1.5 -6.203125q1.25 -1.5625 3.46875 -1.5625zm0 2.421875q-0.53125 0 -0.953125 0.34375q-0.421875 0.34375 -0.640625 1.21875q-0.3125 1.125 -0.3125 3.8125q0 2.6875 0.265625 3.703125q0.28125 1.0 0.6875 1.328125q0.421875 0.328125 0.953125 0.328125q0.53125 0 0.9375 -0.328125q0.421875 -0.34375 0.65625 -1.21875q0.296875 -1.125 0.296875 -3.8125q0 -2.6875 -0.28125 -3.6875q-0.265625 -1.0 -0.671875 -1.34375q-0.40625 -0.34375 -0.9375 -0.34375z" fill-rule="nonzero"/><path fill="#000000" fill-opacity="0.0" d="m582.4961 142.58267l56.15747 0l0 36.220474l-56.15747 0z" fill-rule="evenodd"/><path fill="#000000" d="m592.6836 167.98456l0 -2.921875l5.75 0l0 2.921875l-5.75 0zm11.774292 -11.25q2.21875 0 3.46875 1.578125q1.484375 1.875 1.484375 6.21875q0 4.328125 -1.5 6.234375q-1.234375 1.5625 -3.453125 1.5625q-2.234375 0 -3.609375 -1.71875q-1.359375 -1.71875 -1.359375 -6.109375q0 -4.3125 1.5 -6.203125q1.25 -1.5625 3.46875 -1.5625zm0 2.421875q-0.53125 0 -0.953125 0.34375q-0.421875 0.34375 -0.640625 1.21875q-0.3125 1.125 -0.3125 3.8125q0 2.6875 0.265625 3.703125q0.28125 1.0 0.6875 1.328125q0.421875 0.328125 0.953125 0.328125q0.53125 0 0.9375 -0.328125q0.421875 -0.34375 0.65625 -1.21875q0.296875 -1.125 0.296875 -3.8125q0 -2.6875 -0.28125 -3.6875q-0.265625 -1.0 -0.671875 -1.34375q-0.40625 -0.34375 -0.9375 -0.34375zm7.5335693 12.90625l0 -2.921875l2.921875 0l0 2.921875l-2.921875 0zm10.253784 -15.328125q2.21875 0 3.46875 1.578125q1.484375 1.875 1.484375 6.21875q0 4.328125 -1.5 6.234375q-1.234375 1.5625 -3.453125 1.5625q-2.234375 0 -3.609375 -1.71875q-1.359375 -1.71875 -1.359375 -6.109375q0 -4.3125 1.5 -6.203125q1.25 -1.5625 3.46875 -1.5625zm0 2.421875q-0.53125 0 -0.953125 0.34375q-0.421875 0.34375 -0.640625 1.21875q-0.3125 1.125 -0.3125 3.8125q0 2.6875 0.265625 3.703125q0.28125 1.0 0.6875 1.328125q0.421875 0.328125 0.953125 0.328125q0.53125 0 0.9375 -0.328125q0.421875 -0.34375 0.65625 -1.21875q0.296875 -1.125 0.296875 -3.8125q0 -2.6875 -0.28125 -3.6875q-0.265625 -1.0 -0.671875 -1.34375q-0.40625 -0.34375 -0.9375 -0.34375z" fill-rule="nonzero"/></g></svg>